{"title":"As I Lay Dying 2013 DVD-R (RLG)","uid":9413432,"size":4685786772,"categoryP":"video","categoryS":"movies_dvdr","magnet":"?xt=urn:btih:3093be345da2ae870fc68f3fb1c3a0dc098b5f08&amp;dn=As+I+Lay+Dying+2013+DVD-R+%28RLG%29&amp;tr=udp%3A%2F%2Ftracker.openbittorrent.com%3A80&amp;tr=udp%3A%2F%2Fopen.demonii.com%3A1337&amp;tr=udp%3A%2F%2Ftracker.coppersurfer.tk%3A6969&amp;tr=udp%3A%2F%2Fexodus.desync.com%3A6969","seeders":1,"leechers":0,"uploader":"RedLegsGreaves","files":-1,"time":1388365976,"description":" &lt;a href=&quot;http://www.imdb.com/title/tt1807944/&quot; rel=&quot;nofollow&quot; target=&quot;_NEW&quot;&gt;http://www.imdb.com/title/tt1807944/&lt;/a&gt;\nBased on the 1930 classic by Faulkner, it is the story of the death of Addie Bundren and her family's quest to honor her wish to be buried in the nearby town of Jefferson.\n\nLanguages English.\nSubtitles English, Spanish.\n\nFor Newer Users.\nSimply Drag downloaded folder to your Media Player. This is a NTSC DVD.\nThis is ripped so you would have best quality, menu, bonus/special feature, language options etc.\nNote:DVDs may not have have all* features.\n\nScreenshots. &lt;a href=&quot;\nhttp://imageshack.com/a/img7/6022/zrfy.jpg&quot; rel=&quot;nofollow&quot; target=&quot;_NEW&quot;&gt;\nhttp://imageshack.com/a/img7/6022/zrfy.jpg&lt;/a&gt; &lt;a href=&quot;\nhttp://imageshack.com/a/img30/3385/u9pj.jpg&quot; rel=&quot;nofollow&quot; target=&quot;_NEW&quot;&gt;\nhttp://imageshack.com/a/img30/3385/u9pj.jpg&lt;/a&gt; &lt;a href=&quot;\nhttp://imageshack.com/a/img132/8446/igqh.jpg&quot; rel=&quot;nofollow&quot; target=&quot;_NEW&quot;&gt;\nhttp://imageshack.com/a/img132/8446/igqh.jpg&lt;/a&gt; &lt;a href=&quot;\nhttp://imageshack.com/a/img856/5295/iojz.jpg&quot; rel=&quot;nofollow&quot; target=&quot;_NEW&quot;&gt;\nhttp://imageshack.com/a/img856/5295/iojz.jpg&lt;/a&gt; &lt;a href=&quot;\nhttp://imageshack.com/a/img191/2739/jem7.jpg&quot; rel=&quot;nofollow&quot; target=&quot;_NEW&quot;&gt;\nhttp://imageshack.com/a/img191/2739/jem7.jpg&lt;/a&gt; &lt;a href=&quot;\nhttp://imageshack.com/a/img843/6020/7tqz.jpg&quot; rel=&quot;nofollow&quot; target=&quot;_NEW&quot;&gt;\nhttp://imageshack.com/a/img843/6020/7tqz.jpg&lt;/a&gt; &lt;a href=&quot;\nhttp://imageshack.com/a/img593/1931/w0zi.jpg&quot; rel=&quot;nofollow&quot; target=&quot;_NEW&quot;&gt;\nhttp://imageshack.com/a/img593/1931/w0zi.jpg&lt;/a&gt; &lt;a href=&quot;\nhttp://imageshack.com/a/img607/8752/yont.jpg&quot; rel=&quot;nofollow&quot; target=&quot;_NEW&quot;&gt;\nhttp://imageshack.com/a/img607/8752/yont.jpg&lt;/a&gt;\n\nVideo\nID : 224 (0xE0)\nFormat : MPEG Video\nBit rate mode : Variable\nBit rate : 15.6 Mbps\nWidth : 720 pixels\nHeight : 480 pixels\nDisplay aspect ratio : 16:9\nFrame rate : 29.970 fps\nStandard : NTSC\nColor space : YUV\nChroma subsampling : 4:2:0\nBit depth : 8 bits\nScan type : Progressive\nCompression mode : Lossy\nBits/(Pixel*Frame) : 1.504\nStream size : 63.4 KiB (0%)\nColor primaries : BT.601 NTSC\nTransfer characteristics : BT.601\nMatrix coefficients : BT.601\n\nAudio\nID : 189 (0xBD)-128 (0x80)\nFormat : AC-3\nFormat/Info : Audio Coding 3\nMode extension : CM (complete main)\nFormat settings, Endianness : Big\nMuxing mode : DVD-Video\nDuration : 1mn 23s\nBit rate mode : Constant\nBit rate : 192 Kbps\nChannel count : 2 channels\nChannel positions : Front: L R\nSampling rate : 48.0 KHz\nBit depth : 16 bits\nCompression mode : Lossy\nStream size : 1.91 MiB (1%)","torrent":{"xt":"urn:btih:3093be345da2ae870fc68f3fb1c3a0dc098b5f08","amp;dn":"As+I+Lay+Dying+2013+DVD-R+%28RLG%29","amp;tr":["udp%3A%2F%2Ftracker.openbittorrent.com%3A80","udp%3A%2F%2Fopen.demonii.com%3A1337","udp%3A%2F%2Ftracker.coppersurfer.tk%3A6969","udp%3A%2F%2Fexodus.desync.com%3A6969"],"infoHash":"3093be345da2ae870fc68f3fb1c3a0dc098b5f08","infoHashBuffer":{"type":"Buffer","data":[48,147,190,52,93,162,174,135,15,198,143,63,177,195,160,220,9,139,95,8]},"announce":[],"urlList":[]}}